<svg width="24" height="24" viewBox="0 0 24 24" fill="none" xmlns="http://www.w3.org/2000/svg">
<path fill-rule="evenodd" clip-rule="evenodd" d="M11.7868 24C17.7447 24 22.5736 19.1471 22.5736 13.2132C22.5736 7.80781 18.5616 3.29129 13.3724 2.52252C13.4925 2.28228 13.5646 2.01802 13.5646 1.72973C13.5646 0.768769 12.7958 0 11.8348 0C10.8739 0 10.1051 0.768769 10.1051 1.72973C10.1051 2.01802 10.1772 2.28228 10.2973 2.52252C5.06006 3.24324 1 7.75976 1 13.2132C1 19.1712 5.85285 24 11.7868 24ZM11.8348 1.15315C12.1471 1.15315 12.4114 1.41742 12.4114 1.72973C12.4114 2.04204 12.1471 2.30631 11.8348 2.30631C11.5225 2.30631 11.2583 2.04204 11.2583 1.72973C11.2583 1.41742 11.5225 1.15315 11.8348 1.15315ZM11.7868 3.57958C17.0961 3.57958 21.4204 7.9039 21.4204 13.2132C21.4204 18.5225 17.0961 22.8468 11.7868 22.8468C6.47748 22.8468 2.15315 18.5225 2.15315 13.2132C2.15315 7.9039 6.47748 3.57958 11.7868 3.57958ZM11.7868 21.2132C16.2072 21.2132 19.7868 17.6336 19.7868 13.2132C19.7868 8.79277 16.2072 5.2132 11.7868 5.2132C7.36635 5.2132 3.78677 8.79277 3.78677 13.2132C3.8108 17.6336 7.39038 21.2132 11.7868 21.2132ZM18.8739 13.2132C18.8739 17.1051 15.7027 20.3003 11.7868 20.3003C7.89488 20.3003 4.69969 17.1291 4.69969 13.2132C4.69969 9.3213 7.87086 6.12611 11.7868 6.12611C15.7027 6.12611 18.8739 9.3213 18.8739 13.2132ZM8.39941 17.2493C8.37538 17.2733 8.32734 17.2973 8.27929 17.2973C8.23124 17.2973 8.18319 17.2733 8.15917 17.2493C8.06307 17.1772 8.06307 17.0571 8.11112 16.961L9.91292 13.8619C9.84085 13.6457 9.7928 13.4294 9.7928 13.2132C9.7928 12.1081 10.7057 11.1952 11.8108 11.1952C11.8469 11.1952 11.8889 11.2012 11.9309 11.2072C11.973 11.2132 12.015 11.2192 12.0511 11.2192L16.039 8.69672C16.1351 8.62464 16.2553 8.64867 16.3273 8.72074C16.3994 8.79281 16.3994 8.91293 16.3514 9.00903L13.8048 13.021V13.2132C13.8048 14.3183 12.8919 15.2312 11.7868 15.2312C11.6667 15.2312 11.5225 15.2072 11.4024 15.1832L8.39941 17.2493ZM15.4144 9.63365L12.6517 11.3874C13.0841 11.5796 13.4445 11.964 13.6607 12.3964L15.4144 9.63365ZM12.6517 13.2132C12.6517 12.7328 12.2673 12.3484 11.7868 12.3484C11.3303 12.3484 10.9219 12.7328 10.9219 13.2132C10.9219 13.6937 11.3063 14.0781 11.7868 14.0781C12.2673 14.0781 12.6517 13.6937 12.6517 13.2132ZM9.00001 16.3123L10.8739 15.015C10.5856 14.8469 10.3213 14.6306 10.1291 14.3664L9.00001 16.3123ZM5.03604 13.2132C5.03604 13.3333 5.13214 13.4534 5.27628 13.4534H6.98199C7.10211 13.4534 7.22223 13.3573 7.22223 13.2132C7.22223 13.0931 7.12613 12.973 6.98199 12.973H5.27628C5.13214 12.973 5.03604 13.0931 5.03604 13.2132ZM18.4174 13.4534H16.7117C16.5916 13.4534 16.4955 13.3333 16.4715 13.2132C16.4715 13.0691 16.5916 12.973 16.7117 12.973H18.4174C18.5616 12.973 18.6577 13.0931 18.6577 13.2132C18.6577 13.3573 18.5375 13.4534 18.4174 13.4534ZM11.8348 8.57657C11.955 8.57657 12.0751 8.48047 12.0751 8.33633V6.63062C12.0751 6.5105 11.979 6.39038 11.8348 6.39038C11.6907 6.39038 11.5946 6.48648 11.5946 6.63062V8.33633C11.6186 8.45645 11.7147 8.57657 11.8348 8.57657ZM11.5946 18.09C11.5946 17.9459 11.7147 17.8498 11.8348 17.8498C11.979 17.8498 12.0751 17.9699 12.0751 18.09V19.7957C12.0751 19.9399 11.979 20.036 11.8348 20.036C11.6907 20.036 11.5946 19.9159 11.5946 19.7957V18.09Z" fill="white"/>
</svg>
