<svg width="24" height="24" viewBox="0 0 24 24" fill="none" xmlns="http://www.w3.org/2000/svg">
<path d="M11.7502 2.41653L20.1166 5.33624V8.3523C20.1166 14.9037 16.8093 18.7784 11.7502 21.5273C6.69148 18.778 3.38692 14.9035 3.38692 8.3523V5.33624L11.7502 2.41653ZM11.6054 1.52501L2.79737 4.59809C2.61924 4.65983 2.5 4.8288 2.5 5.01963V8.35201C2.5 15.3099 6.18292 19.6009 11.5424 22.4488C11.672 22.5171 11.828 22.5171 11.9576 22.4488C17.3161 19.6012 21 15.3099 21 8.35201V5.01963C21 4.82821 20.8799 4.65924 20.7018 4.59809L11.896 1.52501C11.7915 1.48779 11.689 1.49577 11.6054 1.52501Z" fill="#00BB98"/>
<path fill-rule="evenodd" clip-rule="evenodd" d="M15.6289 8.40584L16.6011 9.36473C16.6859 9.44745 16.6859 9.56058 16.6011 9.64389C16.3399 9.90355 13.5131 12.7952 11.9624 14.352C11.5567 14.7558 11.1463 15.1581 10.7364 15.5646C10.6507 15.6485 10.5262 15.6506 10.4429 15.567L6.90391 12.021C6.8203 11.9376 6.82324 11.8148 6.90627 11.7291C7.23838 11.3935 7.68004 10.9395 7.8929 10.7244C7.97769 10.6385 8.09045 10.6385 8.17849 10.7244L10.2815 12.8372C10.4547 13.0109 10.7364 13.0109 10.9095 12.8372L15.26 8.47709C15.3845 8.35185 15.5435 8.32076 15.6289 8.40584ZM15.3996 7.49451C15.1163 7.52405 14.8472 7.63719 14.6347 7.85017L10.5973 11.8913L8.80424 10.0976C8.3841 9.67606 7.68865 9.67606 7.26823 10.1C7.053 10.318 6.60606 10.7685 6.27632 11.1046C5.85854 11.5291 5.85382 12.2245 6.27632 12.6484L9.81793 16.1973C10.2434 16.6212 10.9365 16.6212 11.3595 16.1997C11.767 15.7959 12.1798 15.3909 12.5882 14.9797C14.1466 13.4185 17.0528 10.445 17.2242 10.2766C17.6487 9.85746 17.6443 9.15145 17.2218 8.73288L16.252 7.77398C16.0076 7.53382 15.6825 7.46763 15.3996 7.49451Z" fill="#00BB98"/>
</svg>
