<svg width="24" height="25" viewBox="0 0 24 25" fill="none" xmlns="http://www.w3.org/2000/svg">
<path d="M13.8705 14.7218L21.3636 18.6226C21.584 18.7328 21.8485 18.6887 22.0028 18.5124C22.157 18.3361 22.1791 18.0716 22.0468 17.8733L20.3058 15.3168C20.3499 15.2507 20.3939 15.2066 20.416 15.1405L20.7906 14.4353C20.9229 14.1708 20.9449 13.8843 20.8568 13.5978C20.7686 13.3113 20.5703 13.0909 20.3058 12.9587C20.0413 12.8264 19.7548 12.8044 19.4683 12.8926C19.2259 12.9587 19.0276 13.1129 18.8953 13.3113L18.1019 12.1212L18.4105 11.5262C18.5427 11.2617 18.5647 10.9752 18.4766 10.6887C18.3884 10.4022 18.1901 10.1818 17.9256 10.0496C17.6612 9.91735 17.3747 9.89532 17.0882 9.98347C16.9559 10.0275 16.8457 10.0937 16.7355 10.1598L16.4931 9.8292C18.5207 5.64187 19.843 0.881542 18.3664 0.110193C16.8678 -0.661157 13.5179 3.10744 11.2259 7.20661H10.6529C10.6749 7.05234 10.6529 6.89807 10.6088 6.7438C10.5207 6.4573 10.3223 6.23691 10.0579 6.10468C9.7934 5.97245 9.5069 5.95041 9.22039 6.03857C8.93389 6.12672 8.71351 6.32507 8.58128 6.58953L8.22866 7.27273L6.86227 7.29477C7.10469 6.76584 6.90634 6.12672 6.37742 5.84022C6.11296 5.70799 5.82645 5.68595 5.53995 5.7741C5.25345 5.86226 5.03307 6.06061 4.90083 6.32507L4.52618 6.98623C4.4821 7.07438 4.46006 7.18457 4.43802 7.27273L1.52893 7.29477C1.28651 7.29477 1.06612 7.47107 1.02205 7.69146C0.955931 7.93388 1.06612 8.17631 1.28651 8.2865L8.77962 12.1873C8.09643 13.8402 7.83196 15.449 7.61158 16.7493C7.54546 17.1901 7.45731 17.6309 7.39119 18.0055L3.46833 19.2397C3.20386 19.3278 3.04959 19.5702 3.09367 19.8347C3.13775 20.0992 3.38017 20.2755 3.64464 20.2755C3.68871 20.2755 7.39119 20.1212 10.3884 23.8237C10.4986 23.9559 10.6529 24.022 10.8072 24.022C10.8953 24.022 10.9835 24 11.0496 23.9559C11.27 23.8457 11.3802 23.5813 11.3141 23.3388L10.0799 19.416C10.2121 19.2617 10.3664 19.1074 10.5207 18.9311C11.4683 17.8733 12.7686 16.4848 13.8705 14.7218ZM5.95869 19.5482L7.98623 18.9091C8.16254 18.843 8.29477 18.7107 8.33885 18.5344C8.44904 18.0496 8.5372 17.4986 8.64739 16.9256C8.88981 15.4931 9.15428 13.8623 9.92563 12.1653C10.0358 11.9008 9.94767 11.6143 9.6832 11.4821L3.64464 8.33058L4.79064 8.30854C4.85676 8.37466 4.92287 8.41873 5.01103 8.46281C5.1653 8.55096 5.34161 8.59504 5.51791 8.59504C5.62811 8.59504 5.7383 8.573 5.84849 8.55096C6.00276 8.50689 6.13499 8.41873 6.26723 8.30854L8.2507 8.2865C8.36089 8.48485 8.51516 8.66116 8.71351 8.77135C8.86778 8.8595 9.04408 8.90358 9.22039 8.90358C9.33059 8.90358 9.44078 8.88154 9.55097 8.8595C9.83747 8.77135 10.0579 8.573 10.1901 8.30854L10.2121 8.2865L11.5785 8.26446C11.7769 8.26446 11.9532 8.15427 12.0413 8C14.5537 3.3719 17.2204 1.10193 17.9036 1.05785C18.1901 1.58678 17.8815 4.69421 15.4573 9.63085C15.3692 9.80716 15.3912 10.0055 15.5014 10.1598L16.1625 11.1295L16.0744 11.2397C15.9422 11.5041 15.9201 11.7906 16.0083 12.0771C16.0964 12.3636 16.2948 12.584 16.5592 12.7163C16.7135 12.8044 16.8898 12.8485 17.0661 12.8485C17.1543 12.8485 17.2204 12.8264 17.3085 12.8264L18.3664 14.3471C18.3223 14.5455 18.3223 14.7438 18.3884 14.9421C18.4766 15.2287 18.6749 15.449 18.9394 15.5813C19.0496 15.6474 19.1818 15.6694 19.3141 15.6915L19.9973 16.6832L13.9146 13.5537C13.6722 13.4215 13.3636 13.5096 13.2094 13.7521C12.1074 15.6033 10.7851 17.0578 9.72728 18.2039C9.48486 18.4463 9.28651 18.6887 9.08816 18.9091C8.95593 19.0413 8.93389 19.2397 8.97797 19.416L9.63913 21.5096C8.33885 20.4518 7.03858 19.8567 5.95869 19.5482ZM5.29753 7.36088L5.67218 6.63361C5.71626 6.54545 5.80442 6.50138 5.89257 6.50138C5.93665 6.50138 5.98072 6.50138 6.00276 6.52342C6.13499 6.58953 6.17907 6.7438 6.11296 6.87603L5.7383 7.58127C5.71626 7.64738 5.65015 7.69146 5.58403 7.7135C5.51791 7.73554 5.4518 7.73554 5.38568 7.69146C5.31957 7.66942 5.27549 7.60331 5.25345 7.53719C5.25345 7.49311 5.25345 7.427 5.29753 7.36088ZM9.35262 6.94215C9.3967 6.85399 9.48486 6.80992 9.57301 6.80992C9.61709 6.80992 9.66117 6.80992 9.6832 6.83196C9.74932 6.85399 9.7934 6.92011 9.81543 6.98623C9.83747 7.05234 9.83747 7.11846 9.7934 7.18457L9.41874 7.88981C9.3967 7.95592 9.33059 8 9.26447 8.02204C9.19835 8.04408 9.13224 8.04408 9.06612 8C8.93389 7.93388 8.88981 7.77961 8.95593 7.64738L9.35262 6.94215ZM17.3526 10.7769C17.3747 10.7769 17.3967 10.7548 17.4408 10.7548C17.4849 10.7548 17.5289 10.7548 17.551 10.7769C17.6171 10.7989 17.6612 10.865 17.6832 10.9311C17.7052 10.9972 17.7052 11.0634 17.6612 11.1295L17.2865 11.8347C17.2204 11.9669 17.0661 12.011 16.9339 11.9449C16.8017 11.8788 16.7576 11.7245 16.8237 11.5923L17.1984 10.8871C17.2424 10.843 17.2865 10.7989 17.3526 10.7769ZM19.2039 14.4793L19.5785 13.7741C19.6006 13.708 19.6667 13.6639 19.7328 13.6419C19.7989 13.6198 19.865 13.6198 19.9311 13.6639C19.9973 13.686 20.0413 13.7521 20.0634 13.8182C20.0854 13.8843 20.0854 13.9504 20.0413 14.0165L19.6667 14.7438C19.6446 14.8099 19.5785 14.854 19.5124 14.876C19.4463 14.8981 19.3802 14.8981 19.3141 14.854C19.2479 14.832 19.2039 14.7658 19.1818 14.6997C19.1598 14.6116 19.1598 14.5455 19.2039 14.4793Z" fill="white"/>
</svg>
