<svg width="24" height="24" viewBox="0 0 24 24" fill="none" xmlns="http://www.w3.org/2000/svg">
<g clip-path="url(#clip0_1085_1980)">
<path d="M21.6703 2.94128C19.1156 0.766279 15.2953 1.12722 12.9234 3.57409L12 4.53034L11.0766 3.57878C9.16406 1.60065 5.30625 0.410029 2.32968 2.94128C-0.614067 5.45378 -0.768755 9.96315 1.86562 12.6819L10.9359 22.0475C11.2266 22.3475 11.6109 22.5022 11.9953 22.5022C12.3797 22.5022 12.7641 22.3522 13.0547 22.0475L22.125 12.6819C24.7687 9.96315 24.6141 5.45378 21.6703 2.94128ZM21.0562 11.6413L12.0187 21.0069L2.94375 11.6413C1.14375 9.78503 0.768745 6.24597 3.30468 4.08503C5.87343 1.89128 8.89218 3.48034 9.99843 4.62409L12 6.69128L14.0016 4.62409C15.0891 3.49909 18.1359 1.90534 20.6953 4.08503C23.2266 6.24128 22.8562 9.78034 21.0562 11.6413Z" fill="#999999"/>
</g>
<defs>
<clipPath id="clip0_1085_1980">
<rect width="24" height="24" fill="white"/>
</clipPath>
</defs>
</svg>
