<svg width="24" height="24" viewBox="0 0 24 24" fill="none" xmlns="http://www.w3.org/2000/svg">
<path d="M22.9991 3.01892C22.8997 3.39765 22.8192 3.78241 22.6979 4.1534C22.4082 5.03654 21.9322 5.81338 21.2811 6.4766C20.6088 7.1609 19.9288 7.83703 19.2467 8.51144C19.1412 8.61559 19.1201 8.70382 19.1614 8.84929C20.0063 11.8142 20.8408 14.7821 21.6895 17.7457C21.7975 18.1223 21.7274 18.4024 21.4481 18.6719C20.8507 19.2486 20.2714 19.8438 19.6831 20.4295C19.2406 20.8703 18.7857 20.7967 18.4943 20.2393C17.2777 17.9088 16.0618 15.5779 14.8451 13.2473C14.8124 13.1845 14.778 13.1221 14.7358 13.0425C14.682 13.0903 14.6343 13.1281 14.5917 13.1707C13.6599 14.1017 12.7311 15.0352 11.7946 15.9618C11.6874 16.0681 11.6702 16.1593 11.709 16.2966C12.089 17.6501 12.4583 19.0067 12.8434 20.3585C12.9386 20.6925 12.8749 20.9525 12.627 21.193C12.1191 21.6871 11.6229 22.1932 11.1215 22.6942C10.6627 23.1526 10.2237 23.0936 9.91341 22.5311C8.94721 20.779 7.98359 19.0261 7.01136 17.2774C6.9468 17.1612 6.83533 17.0511 6.71913 16.9861C4.95155 16.0031 3.17925 15.0287 1.40909 14.0504C1.01142 13.8309 0.888328 13.438 1.10782 13.0984C1.15 13.033 1.20767 12.9771 1.26276 12.9215C1.77836 12.4047 2.29955 11.8934 2.80869 11.37C3.04325 11.129 3.2976 11.058 3.62297 11.1501C4.98211 11.5344 6.34513 11.9067 7.7047 12.2889C7.84328 12.3281 7.93366 12.3083 8.03911 12.202C8.96055 11.271 9.88888 10.3466 10.8146 9.41997C10.8598 9.37478 10.902 9.32744 10.9631 9.26288C10.4458 8.9926 9.94225 8.72878 9.43827 8.46582C7.53169 7.47078 5.62467 6.47617 3.71808 5.4807C3.21325 5.2173 3.13965 4.74776 3.54163 4.34363C4.14201 3.73937 4.75229 3.14459 5.34492 2.53345C5.60444 2.26575 5.87859 2.20162 6.23581 2.30362C9.2063 3.15233 12.1802 3.99029 15.1511 4.83771C15.2975 4.87945 15.3848 4.85664 15.4886 4.75163C16.1268 4.10434 16.7715 3.46307 17.415 2.82094C18.3803 1.85775 19.5333 1.2578 20.8821 1.0383C20.9161 1.03271 20.9475 1.01291 20.9802 1C21.1808 1 21.3813 1 21.5815 1C21.7936 1.09382 22.0187 1.16613 22.215 1.28577C22.6535 1.55261 22.8752 1.97696 22.9991 2.46071V3.01892ZM2.72261 13.2912C2.80395 13.3394 2.85775 13.373 2.91327 13.4031C4.45834 14.2549 6.00297 15.1083 7.55062 15.9557C7.76581 16.0737 7.9229 16.2286 8.04126 16.4446C8.88523 17.9867 9.7361 19.5245 10.5852 21.0635C10.6214 21.1289 10.6623 21.1913 10.7178 21.2821C10.9554 21.0385 11.168 20.807 11.3969 20.5927C11.5041 20.4924 11.5084 20.3994 11.4727 20.2716C11.1008 18.9383 10.7449 17.6007 10.3576 16.2721C10.2418 15.8757 10.3274 15.5964 10.6128 15.3119C13.8114 12.1241 17.0005 8.92675 20.1974 5.7372C21.0086 4.92766 21.5195 3.97264 21.6977 2.83945C21.7506 2.50332 21.4988 2.2481 21.1649 2.30018C20.0317 2.47707 19.0762 2.98578 18.2662 3.79791C15.0672 7.00553 11.86 10.205 8.66101 13.4122C8.39374 13.6803 8.12174 13.7543 7.75333 13.648C6.41657 13.2624 5.07378 12.8983 3.73185 12.5303C3.65654 12.5097 3.53904 12.492 3.49515 12.5325C3.23261 12.7718 2.986 13.0287 2.72347 13.2904L2.72261 13.2912ZM18.0562 9.70574C17.294 10.4679 16.5637 11.2039 15.8256 11.9312C15.7201 12.0354 15.7094 12.1073 15.7778 12.2381C16.9222 14.4201 18.0605 16.6056 19.2006 18.7898C19.2294 18.8449 19.2626 18.8974 19.3116 18.9817C19.6271 18.662 19.9206 18.3517 20.2301 18.0577C20.3501 17.9437 20.3721 17.8464 20.3269 17.6876C19.7532 15.6855 19.1873 13.6812 18.6192 11.6777C18.4362 11.0335 18.252 10.39 18.0566 9.70574H18.0562ZM5.02084 4.70041C7.33802 5.90892 9.63237 7.10581 11.8846 8.28075C12.6829 7.48326 13.4593 6.70728 14.2349 5.93259C14.2086 5.92356 14.1626 5.90505 14.1157 5.89128C12.9287 5.55386 11.7417 5.21644 10.5547 4.87945C9.12711 4.47446 7.69997 4.06862 6.27153 3.66707C6.20396 3.64813 6.0968 3.63393 6.05849 3.67008C5.71333 3.99975 5.37935 4.34105 5.02128 4.69998L5.02084 4.70041Z" fill="#FD4C5C"/>
</svg>
