<svg width="24" height="24" viewBox="0 0 24 24" fill="none" xmlns="http://www.w3.org/2000/svg">
<path d="M10.5329 16.5261C10.7207 16.6762 10.9461 16.7891 11.2088 16.864L6.85207 23.8122C6.77688 23.9248 6.66423 24 6.55158 24H6.51412C6.364 24 6.25109 23.8873 6.21362 23.737L5.16202 20.6571L1.93207 21.0328C1.78196 21.0328 1.63158 20.9953 1.55639 20.845C1.4812 20.6948 1.4812 20.5819 1.55639 20.4318L5.80045 13.7097C5.91311 13.7472 6.02576 13.8224 6.06348 13.8224C6.10094 13.8975 6.2136 14.1228 6.25132 14.273C6.25132 14.273 6.25132 14.3104 6.28879 14.3104L2.57053 20.2071L5.31216 19.8691H5.34962C5.49974 19.8691 5.65011 19.9818 5.68758 20.1322L6.58902 22.7611L10.5329 16.5261ZM22.1006 20.5071L17.8191 13.7092C17.7064 13.7467 17.556 13.8218 17.5186 13.8593C17.4811 13.8968 17.4059 14.1598 17.3307 14.2725C17.3307 14.2725 17.3307 14.3099 17.2933 14.3099L21.0115 20.2066L18.2699 19.8686C18.082 19.8312 17.9319 19.9438 17.8567 20.1316L16.9553 22.7606L13.0866 16.526C12.8988 16.6761 12.6735 16.789 12.4107 16.864L16.7674 23.8121C16.8426 23.9247 16.9553 23.9999 17.0679 23.9999H17.1054C17.2555 23.9999 17.3684 23.8873 17.4059 23.7369L18.4575 20.657L21.6874 21.0327C21.8376 21.0327 21.9879 20.9953 22.0631 20.8449C22.1755 20.7697 22.1755 20.6197 22.1006 20.5071ZM13.0868 15.6246C12.7111 15.925 12.3357 16.2255 11.8099 16.2255C11.2841 16.2255 10.9085 15.8876 10.533 15.6246C10.3077 15.4367 10.0824 15.2866 9.8946 15.2114C9.66929 15.1739 9.40627 15.2114 9.10576 15.2489C8.65515 15.3241 8.16682 15.399 7.75369 15.1362C7.34054 14.8732 7.15271 14.4226 6.96485 14.0094C6.8522 13.7464 6.73954 13.4836 6.58916 13.3335C6.43905 13.1834 6.17602 13.0705 5.91326 12.9578C5.50012 12.8077 5.01182 12.5822 4.78647 12.169C4.56113 11.7558 4.59863 11.2301 4.67382 10.8169C4.71128 10.5164 4.74901 10.216 4.71128 10.0281C4.67382 9.84026 4.48598 9.61495 4.29814 9.38966C3.99765 9.01397 3.69716 8.63857 3.69716 8.11277C3.69716 7.58696 4.03512 7.21132 4.29814 6.83588C4.48598 6.61058 4.63609 6.38527 4.71128 6.19744C4.74875 5.97213 4.71128 5.70911 4.67382 5.4086C4.59863 4.95799 4.5237 4.46966 4.78647 4.05653C5.0495 3.64338 5.50013 3.45555 5.91326 3.26769C6.17629 3.15504 6.43905 3.04238 6.58916 2.89201C6.73928 2.74189 6.8522 2.47886 6.96485 2.21611C7.11496 1.80296 7.34053 1.31466 7.75369 1.08931C8.16683 0.86401 8.69263 0.901474 9.10576 0.976662C9.40625 1.01413 9.70674 1.05185 9.8946 1.01413C10.0824 0.976662 10.3077 0.788821 10.533 0.60098C10.9087 0.300486 11.2841 0 11.8099 0C12.3357 0 12.7114 0.337957 13.0868 0.60098C13.3121 0.788821 13.5374 0.938937 13.7253 1.01413C13.9506 1.05159 14.2136 1.01413 14.5141 0.976662C14.9647 0.901474 15.453 0.826547 15.8662 1.08931C16.2793 1.35234 16.4671 1.80297 16.655 2.21611C16.7677 2.47914 16.8803 2.7419 17.0307 2.89201C17.1808 3.04212 17.4438 3.15504 17.7066 3.26769C18.1197 3.4178 18.608 3.64337 18.8334 4.05653C19.0587 4.46967 19.0212 4.99546 18.946 5.4086C18.9086 5.70909 18.8708 6.00958 18.9086 6.19744C18.946 6.38528 19.1339 6.61058 19.3217 6.83588C19.6222 7.21156 19.9227 7.58696 19.9227 8.11277C19.9227 8.6011 19.5847 9.01421 19.3217 9.38966C19.1339 9.61496 18.9838 9.84026 18.9086 10.0281C18.8711 10.2534 18.9086 10.5164 18.946 10.8169C19.0212 11.2675 19.0961 11.7559 18.8334 12.169C18.5704 12.5822 18.1197 12.77 17.7066 12.9578C17.4436 13.0705 17.1808 13.1832 17.0307 13.3335C16.8806 13.4836 16.7677 13.7467 16.655 14.0094C16.5049 14.4226 16.2793 14.9109 15.8662 15.1362C15.453 15.3615 14.9272 15.3241 14.5141 15.2489C14.2136 15.2114 13.9131 15.1737 13.7253 15.2114C13.5377 15.2489 13.3121 15.4367 13.0868 15.6246ZM12.5987 15.0236C12.8618 14.7983 13.162 14.573 13.5002 14.4978C13.8382 14.3851 14.2139 14.4603 14.5892 14.4978C14.9272 14.5352 15.2651 14.6104 15.453 14.4978C15.6408 14.3851 15.7909 14.0472 15.9036 13.7467C16.0537 13.4087 16.1666 13.0708 16.4294 12.8078C16.6924 12.5447 17.0304 12.3946 17.3683 12.282C17.7063 12.1693 18.0068 12.0189 18.1194 11.8314C18.2321 11.6435 18.1946 11.3056 18.1194 10.9676C18.0819 10.5919 18.0067 10.2165 18.1194 9.87858C18.1946 9.54062 18.4574 9.24014 18.6452 8.97713C18.8705 8.7141 19.0958 8.41388 19.0958 8.18829C19.0958 7.96299 18.8705 7.6625 18.6452 7.39945C18.4199 7.13642 18.1946 6.8362 18.1194 6.49801C18.0067 6.16005 18.0819 5.78435 18.1194 5.40897C18.1569 5.07102 18.2321 4.73307 18.1194 4.54522C18.0067 4.35738 17.6688 4.20726 17.3683 4.09461C17.0304 3.94449 16.6924 3.83158 16.4294 3.56882C16.1664 3.30579 16.0162 2.96784 15.9036 2.62988C15.7909 2.29192 15.6406 1.99144 15.453 1.8788C15.2651 1.76615 14.9272 1.80361 14.5892 1.8788C14.2135 1.91626 13.8381 1.99145 13.5002 1.8788C13.1622 1.80361 12.8617 1.54084 12.5987 1.35301C12.3357 0.939602 12.0352 0.714304 11.8099 0.714304C11.5846 0.714304 11.2841 0.939608 11.0211 1.16491C10.758 1.39022 10.4578 1.61552 10.1196 1.6907C9.78166 1.80336 9.40596 1.72817 9.03059 1.6907C8.69263 1.65324 8.35469 1.57805 8.16683 1.6907C7.97899 1.80336 7.82888 2.14131 7.71623 2.44179C7.56611 2.77974 7.45319 3.11769 7.19043 3.38072C6.9274 3.64375 6.58945 3.79387 6.2515 3.90651C5.91354 4.01917 5.61305 4.16954 5.50041 4.35712C5.38776 4.54496 5.42522 4.88291 5.50041 5.22088C5.53788 5.59656 5.61307 5.97196 5.50041 6.30991C5.42522 6.64787 5.16246 6.94835 4.97462 7.21136C4.74932 7.47439 4.52401 7.77461 4.52401 8.0002C4.52401 8.2255 4.74932 8.52599 4.97462 8.78904C5.19993 9.05207 5.42523 9.35229 5.50041 9.69049C5.61307 10.0284 5.53788 10.4041 5.50041 10.7795C5.46295 11.1175 5.38776 11.4554 5.50041 11.6433C5.61307 11.8311 5.95102 11.9812 6.2515 12.0939C6.58945 12.244 6.9274 12.3569 7.19043 12.6197C7.45346 12.8827 7.60358 13.2207 7.71623 13.5586C7.82888 13.8966 7.97925 14.1971 8.16683 14.3097C8.35467 14.4223 8.69262 14.3849 9.03059 14.3097C9.25589 14.2722 9.4812 14.2345 9.70649 14.2345C9.8566 14.2345 10.007 14.2345 10.1571 14.272C10.4951 14.3472 10.7955 14.6099 11.0585 14.7978C11.3216 15.0231 11.6218 15.2484 11.8474 15.2484C12.073 15.2489 12.3357 15.2489 12.5987 15.0236ZM11.8099 13.033C9.06828 13.033 6.85219 10.8172 6.85219 8.07531C6.85219 5.33368 9.06828 3.15535 11.8099 3.15535C14.5515 3.15535 16.7676 5.37117 16.7676 8.11307C16.7676 10.8547 14.5515 13.033 11.8099 13.033ZM16.0163 8.07558C16.0163 5.74708 14.1384 3.86921 11.8099 3.86921C9.48141 3.86921 7.60354 5.74708 7.60354 8.07558C7.60354 10.4041 9.48141 12.2819 11.8099 12.2819C14.1384 12.2819 16.0163 10.4041 16.0163 8.07558ZM14.5515 7.06146C14.589 7.21158 14.5515 7.36196 14.4389 7.43714L13.3873 8.45126L13.6503 9.916C13.6878 10.0661 13.6128 10.2165 13.5002 10.2917C13.425 10.3291 13.3501 10.3669 13.2749 10.3669C13.1997 10.3669 13.1622 10.3669 13.087 10.3294L11.8099 9.65297L10.4952 10.3289C10.3826 10.4041 10.2322 10.3663 10.0821 10.2914C9.96944 10.2162 9.89426 10.0661 9.93198 9.91573L10.195 8.45099L9.1434 7.43687C9.03075 7.32422 8.99329 7.17384 9.03075 7.06119C9.06821 6.91107 9.18086 6.83588 9.33124 6.79816L10.796 6.57285L11.4344 5.25821C11.5471 4.99518 11.9977 4.99518 12.1103 5.25821L12.7488 6.57285L14.2135 6.79816C14.4014 6.83615 14.5141 6.91109 14.5515 7.06146ZM13.3873 7.43688L12.4859 7.32423C12.3732 7.32423 12.2606 7.21158 12.1854 7.13639L11.81 6.31039L11.3968 7.09897C11.3594 7.21162 11.2467 7.28681 11.0963 7.28681L10.1949 7.39946L10.8333 8.0379C10.9085 8.11309 10.946 8.26321 10.946 8.37586L10.7959 9.2773L11.5847 8.86416C11.6222 8.8267 11.6973 8.8267 11.7725 8.8267C11.8477 8.8267 11.8852 8.8267 11.9604 8.86416L12.7492 9.2773L12.5991 8.37586C12.5616 8.26321 12.6366 8.11283 12.7118 8.0379L13.3873 7.43688Z" fill="#00BB98"/>
</svg>
