<svg width="24" height="25" viewBox="0 0 24 25" fill="none" xmlns="http://www.w3.org/2000/svg">
<path fill-rule="evenodd" clip-rule="evenodd" d="M3.3889 2.77164C3.04973 2.74731 2.72946 2.72434 2.36324 2.72434C2.15568 2.72434 2 2.54272 2 2.33515C2 2.12758 2.15568 1.97191 2.36324 1.97191H2.36325C2.59676 1.97191 2.77838 1.97191 2.98595 1.99785L2.77838 1.24542C2.72649 1.03785 2.83027 0.830287 3.03784 0.778395C3.24541 0.726503 3.45297 0.856233 3.50486 1.03785L3.76432 2.04975C3.77617 2.05093 3.78796 2.05211 3.7997 2.05329C4.04515 2.07795 4.26914 2.10045 4.51676 2.07569V1.03785C4.51676 0.830287 4.67243 0.674611 4.88 0.674611C5.08757 0.674611 5.24324 0.830287 5.24324 1.03785V2.20542L5.24325 2.20542C5.47676 2.25731 5.71027 2.30921 5.94378 2.38704L6.28108 1.08975C6.33297 0.908125 6.54054 0.778395 6.74811 0.830287C6.92973 0.882179 7.05946 1.08975 7.00757 1.29731L6.67027 2.6465C6.98162 2.75029 7.26703 2.88002 7.52649 3.00975L8.07135 1.11569C8.12324 0.908125 8.33081 0.804341 8.53838 0.856233C8.74595 0.908125 8.84973 1.11569 8.79784 1.32326L8.20108 3.34704C8.27892 3.37299 8.35676 3.42488 8.40865 3.50272C8.43459 3.52867 8.43459 3.52867 8.43459 3.55461C8.48649 3.59353 8.53838 3.62596 8.59027 3.65839C8.64216 3.69083 8.69405 3.72326 8.74595 3.76218L9.83568 1.37515C9.91351 1.19353 10.147 1.11569 10.3286 1.19353C10.5103 1.27137 10.5881 1.50488 10.5103 1.6865L9.3427 4.22921C9.55027 4.41083 9.73189 4.59245 9.91351 4.77407L11.4703 1.81623C11.5481 1.63461 11.7816 1.55677 11.9632 1.66056C11.9632 1.67659 11.9732 1.68272 11.9868 1.69118C11.9953 1.69641 12.0052 1.70254 12.0151 1.71245C12.0411 1.60867 12.093 1.50488 12.1968 1.45299C12.3784 1.34921 12.6119 1.4011 12.7157 1.58272L14.3503 4.22921C14.5059 4.04759 14.6616 3.89191 14.8432 3.71029L14.8432 3.71029L13.5719 1.4011C13.4681 1.21948 13.5459 0.960017 13.7276 0.882179C13.9092 0.804341 14.1427 0.856233 14.2465 1.03785L15.4141 3.13948C15.453 3.10056 15.4984 3.06812 15.5438 3.03569C15.5892 3.00326 15.6346 2.97083 15.6735 2.93191C15.6995 2.93191 15.6995 2.90596 15.6995 2.90596C15.7513 2.82812 15.8032 2.77623 15.8811 2.75029L15.2065 0.908125C15.1546 0.726503 15.2584 0.518936 15.44 0.441098C15.6216 0.389206 15.8292 0.49299 15.907 0.674611L16.5557 2.41299C16.7095 2.32751 16.8634 2.25329 17.0247 2.1755C17.1082 2.13523 17.1937 2.094 17.2822 2.04975L16.867 0.830287C16.7892 0.648665 16.893 0.441098 17.1005 0.36326C17.2822 0.285422 17.4897 0.389206 17.5676 0.596774L17.9568 1.76434C18.1384 1.6865 18.3459 1.60867 18.5535 1.55677L18.4757 0.518936C18.4497 0.337314 18.6054 0.155693 18.813 0.129747C18.9946 0.103801 19.1762 0.259476 19.2022 0.467044L19.28 1.4011C19.4876 1.34921 19.7211 1.29731 19.9286 1.27137L20.1103 0.337314C20.1622 0.129747 20.3438 1.68867e-05 20.5513 0.0519088C20.7589 0.103801 20.8886 0.285422 20.8368 0.49299L20.707 1.16758C20.7978 1.15461 20.8886 1.14812 20.9795 1.14164C21.0703 1.13515 21.1611 1.12867 21.2519 1.11569C21.4335 1.08975 21.6151 1.24542 21.6411 1.45299C21.667 1.63461 21.5114 1.81623 21.3038 1.84218C20.8627 1.86812 20.4476 1.92002 20.0584 1.99785L20.5513 2.30921C20.733 2.41299 20.7589 2.6465 20.6551 2.82812C20.5773 2.93191 20.4735 2.9838 20.3438 2.9838C20.2659 2.9838 20.1881 2.9838 20.1362 2.93191L19.0465 2.20542C18.7351 2.28326 18.4497 2.3611 18.1903 2.46488L19.3578 3.03569C19.5654 3.11353 19.6173 3.34704 19.5395 3.52867C19.4616 3.6584 19.3319 3.73623 19.2022 3.73623C19.1503 3.73623 19.0984 3.73623 19.0465 3.71029L17.3081 2.85407C17.2359 2.89534 17.1637 2.93251 17.0931 2.96884C16.9861 3.02387 16.883 3.07696 16.7892 3.13948L18.8389 4.2811C19.0205 4.38488 19.0984 4.61839 18.9946 4.80002C18.9168 4.9038 18.787 4.98164 18.6573 4.98164C18.6054 4.98164 18.5276 4.95569 18.4757 4.92975L16.0886 3.6065C16.0239 3.66198 15.9592 3.71416 15.8957 3.76539C15.7809 3.85793 15.6699 3.94738 15.5697 4.04758L18.6573 5.44867C18.8389 5.5265 18.9168 5.76002 18.8389 5.94164C18.787 6.07137 18.6313 6.14921 18.5016 6.14921C18.4497 6.14921 18.3978 6.14921 18.3459 6.12326L14.947 4.5665C14.8173 4.69623 14.7135 4.82596 14.6097 4.95569C14.5838 5.03353 14.5578 5.05948 14.5059 5.11137C14.493 5.12434 14.48 5.1438 14.467 5.16326C14.4541 5.18272 14.4411 5.20218 14.4281 5.21515L16.8411 6.2011C17.0227 6.27893 17.1265 6.51245 17.0486 6.69407C16.9968 6.84975 16.867 6.92758 16.7114 6.92758C16.6854 6.92758 16.6335 6.92758 16.5816 6.90164L14.0649 5.88975L13.987 6.04542C13.987 6.09731 13.9611 6.14921 13.9092 6.2011C13.8573 6.27893 13.8314 6.33083 13.8054 6.40867C13.9351 6.38272 14.0389 6.38272 14.1686 6.38272C15.3881 6.38272 16.3741 7.34272 16.4 8.56218L17.36 7.88758C17.5157 7.75785 17.7492 7.7838 17.8789 7.93948C18.0086 8.09515 17.9827 8.32866 17.827 8.45839L16.0886 9.93731C16.0627 9.97623 16.0368 10.0087 16.0108 10.0411C15.9849 10.0735 15.9589 10.106 15.933 10.1449C15.9849 10.1838 16.0432 10.2227 16.1016 10.2616C16.16 10.3006 16.2184 10.3395 16.2703 10.3784L18.0086 9.05515C18.1643 8.95137 18.3978 8.97731 18.5276 9.13299C18.6313 9.28866 18.6054 9.52218 18.4497 9.65191L16.867 10.8714C16.8838 10.9049 16.9114 10.9276 16.9428 10.9534C16.96 10.9676 16.9784 10.9827 16.9968 11.0011H17.0227C17.1005 11.027 17.1265 11.053 17.1784 11.1049L18.5795 10.3265C18.7611 10.2487 18.9946 10.3006 19.0984 10.4822C19.1762 10.6638 19.1243 10.8973 18.9427 11.0011L17.6454 11.7276C17.7492 11.8573 17.8789 12.0389 17.9827 12.1946L18.9168 11.7276C19.0984 11.6238 19.3059 11.7016 19.4097 11.8833C19.5135 12.0649 19.4357 12.2724 19.2541 12.3762L18.3719 12.8433C18.4108 12.9081 18.4432 12.973 18.4757 13.0379C18.5081 13.1027 18.5405 13.1676 18.5795 13.2324L19.4357 13.0249C19.6173 12.973 19.8249 13.1027 19.8768 13.3103C19.9286 13.4919 19.7989 13.6995 19.5914 13.7514L18.8649 13.907C18.9168 14.0368 18.9686 14.1665 19.0205 14.3222L19.7989 14.3481C20.0065 14.3481 20.1622 14.5297 20.1622 14.7373C20.1622 14.9449 20.0065 15.1006 19.7989 15.1006H19.773L19.2541 15.0746C19.3059 15.1784 19.3319 15.3081 19.3578 15.4379C19.4097 15.6195 19.28 15.827 19.0724 15.8789H18.9946C18.813 15.8789 18.6832 15.7752 18.6313 15.5935C18.5795 15.3341 18.5016 15.0746 18.4238 14.8152L18.4238 14.8152C18.4238 14.7848 18.4149 14.7633 18.4075 14.7455C18.4023 14.7329 18.3978 14.7221 18.3978 14.7114L18.2422 15.0227C18.1903 15.1524 18.0346 15.2303 17.9049 15.2303C17.853 15.2303 17.8011 15.2303 17.7492 15.2043C17.5676 15.1265 17.4897 14.893 17.5676 14.7114L18.0086 13.7254C17.9697 13.6346 17.9243 13.5503 17.8789 13.466C17.8335 13.3816 17.7881 13.2973 17.7492 13.2065L17.4638 14.1406C17.4119 14.2962 17.2562 14.4 17.1005 14.4C17.0876 14.4 17.0681 14.3935 17.0486 14.387C17.0292 14.3806 17.0097 14.3741 16.9968 14.3741C16.7892 14.3222 16.6854 14.1146 16.7373 13.907L17.2043 12.3503C17.1654 12.2984 17.1265 12.253 17.0876 12.2076C17.0486 12.1622 17.0097 12.1168 16.9708 12.0649L16.3222 13.8292C16.2443 13.9589 16.1146 14.0627 15.9589 14.0627C15.907 14.0627 15.8811 14.0627 15.8292 14.0368C15.6216 13.9849 15.5178 13.7514 15.5957 13.5697L16.3741 11.4422C16.3222 11.3903 16.2638 11.3449 16.2054 11.2995C16.147 11.2541 16.0886 11.2087 16.0368 11.1568L15.2843 13.907C15.2324 14.0887 15.0768 14.1924 14.9211 14.1924C14.9081 14.1924 14.8886 14.186 14.8692 14.1795C14.8497 14.173 14.8303 14.1665 14.8173 14.1665C14.6097 14.1146 14.5059 13.907 14.5578 13.6995L15.3881 10.7416C15.3362 10.6897 15.2843 10.6638 15.2324 10.6379C15.1027 10.7157 14.947 10.7676 14.7914 10.8195L14.4022 12.48C14.3503 12.6616 14.2205 12.7654 14.0389 12.7654H13.9611C13.8314 12.7395 13.7535 12.6616 13.7016 12.5579C13.4941 12.7135 13.2346 12.8173 12.9751 12.8692C12.067 15.1265 11.0292 18.9406 11.7038 23.3254C11.7297 23.507 11.6778 23.6887 11.5481 23.8184C11.4443 23.9481 11.2627 24.026 11.0811 24.026H7.26703C6.92973 24.026 6.64432 23.7406 6.64432 23.4033C6.64432 23.1697 6.67027 19.0962 7.81189 15.2043C7.79586 15.2204 7.77982 15.2265 7.75766 15.235C7.74396 15.2402 7.72793 15.2463 7.70811 15.2562C7.68216 15.2822 7.63027 15.2822 7.57838 15.2822C7.44865 15.2822 7.29297 15.2043 7.24108 15.0487L6.8 13.933C6.69622 14.1665 6.59243 14.426 6.51459 14.6854L7.1373 15.7492C7.24108 15.9308 7.18919 16.1643 7.00757 16.2681C6.95568 16.2941 6.87784 16.32 6.82595 16.32C6.72216 16.32 6.59243 16.2681 6.51459 16.1384L6.25513 15.6973C6.25513 15.7233 6.24865 15.7427 6.24216 15.7622C6.23567 15.7816 6.22919 15.8011 6.22919 15.827C6.22919 15.84 6.2227 15.853 6.21622 15.866C6.20973 15.8789 6.20324 15.8919 6.20324 15.9049C6.12541 16.1903 6.07351 16.5016 6.02162 16.813C5.99568 16.9946 5.84 17.1243 5.65838 17.1243H5.60649C5.39892 17.0984 5.26919 16.9168 5.29513 16.7092C5.32108 16.5276 5.34702 16.3719 5.37297 16.2162L4.75027 16.2941H4.69838C4.51676 16.2941 4.36108 16.1384 4.33513 15.9568C4.30919 15.7492 4.43892 15.5676 4.64649 15.5157L5.52865 15.386C5.58054 15.1784 5.63243 14.9968 5.68432 14.8152L4.82811 14.6854C4.62054 14.6595 4.49081 14.4779 4.51676 14.2703C4.5427 14.0627 4.72432 13.933 4.93189 13.9589L5.94378 14.1146C5.98348 13.9757 6.03836 13.8519 6.09681 13.7201C6.11477 13.6796 6.13306 13.6384 6.15135 13.5957L5.08757 13.1546C4.90595 13.0768 4.80216 12.8433 4.88 12.6616C4.95784 12.48 5.19135 12.3762 5.37297 12.4541L6.48865 12.9211C6.61837 12.6876 6.7481 12.48 6.87782 12.2725L6.87784 12.2724L5.29513 11.5719C5.11351 11.4941 5.03568 11.2606 5.11351 11.0789C5.19135 10.8973 5.42486 10.8195 5.60649 10.8973L7.26703 11.6238C7.29297 11.546 7.34486 11.4941 7.4227 11.4681H7.44865C7.47459 11.4292 7.50703 11.3968 7.53946 11.3643C7.57189 11.3319 7.60432 11.2995 7.63027 11.2606L5.68432 10.0152C5.52865 9.91137 5.47676 9.67785 5.58054 9.49623C5.68432 9.34056 5.91784 9.28866 6.09946 9.39245L8.20108 10.7416C8.27892 10.6768 8.36324 10.6119 8.44756 10.547C8.53189 10.4822 8.61621 10.4173 8.69405 10.3524L6.30703 8.64002C6.15135 8.51029 6.09946 8.27677 6.22919 8.1211C6.35892 7.96542 6.59243 7.91353 6.74811 8.04326L8.46054 9.26272C8.43459 9.15894 8.43459 9.02921 8.43459 8.92542V8.7438L8.12324 8.51029C7.96757 8.38056 7.91568 8.14704 8.0454 7.99137C8.17513 7.83569 8.40865 7.7838 8.56432 7.91353L8.64216 7.96542C8.97946 7.26488 9.65405 6.77191 10.4584 6.69407V6.66812C10.4421 6.61926 10.4156 6.58063 10.3917 6.5458C10.3775 6.52514 10.3643 6.50582 10.3546 6.4865L7.73405 7.7838C7.68216 7.80975 7.63027 7.80975 7.57838 7.80975C7.44865 7.80975 7.29297 7.73191 7.24108 7.60218C7.16324 7.42056 7.24108 7.18704 7.4227 7.10921L9.91351 5.88975C9.90277 5.879 9.89202 5.8638 9.87943 5.84599C9.86162 5.82081 9.84013 5.79041 9.80973 5.76002C9.75784 5.73407 9.70595 5.68218 9.68 5.63029C9.55027 5.47461 9.42054 5.34488 9.29081 5.21515L5.84 7.08326C5.78811 7.10921 5.71027 7.13515 5.65838 7.13515C5.52865 7.13515 5.39892 7.05731 5.32108 6.92758C5.2173 6.74596 5.29513 6.51245 5.47676 6.40867L8.66811 4.67029C8.51734 4.54105 8.34869 4.4297 8.16215 4.30654C8.12399 4.28134 8.08507 4.25565 8.0454 4.22921L5.60649 5.81191C5.59024 5.81732 5.57512 5.82274 5.56067 5.82792C5.50586 5.84755 5.46051 5.8638 5.39892 5.8638C5.26919 5.8638 5.16541 5.78596 5.08757 5.68218C4.95784 5.50056 5.00973 5.26704 5.19135 5.16326L7.29297 3.78812C7.0854 3.68434 6.87784 3.58056 6.67027 3.50272L4.88 4.54056C4.82811 4.5665 4.75027 4.59245 4.69838 4.59245C4.59459 4.59245 4.46486 4.54056 4.38703 4.41083C4.28324 4.22921 4.33513 3.99569 4.51676 3.89191L5.73622 3.19137C5.42486 3.11353 5.08757 3.03569 4.75027 2.95785L3.66054 3.81407C3.5827 3.86596 3.50486 3.89191 3.42703 3.89191C3.32324 3.89191 3.21946 3.84002 3.14162 3.73623C3.03784 3.58056 3.06378 3.34704 3.21946 3.21731L3.76432 2.80218C3.68649 2.77623 3.5827 2.77623 3.50486 2.77623H3.47892H3.45297C3.43153 2.7747 3.41018 2.77317 3.3889 2.77164ZM13.0179 6.42548C13.0746 6.28765 13.1351 6.14059 13.2086 5.99353L12.3005 4.61839L11.9114 5.31894C12.0411 5.31894 12.1708 5.37083 12.2486 5.50056L12.4303 5.78596C12.5341 5.73407 12.6638 5.73407 12.7676 5.78596C12.9492 5.8638 13.027 6.09731 12.9232 6.27894L12.8454 6.43461L12.9492 6.59029C12.9719 6.53734 12.9946 6.48219 13.0179 6.42548ZM11.0675 14.5557H10.2931C10.2508 14.614 10.2015 14.6653 10.1211 14.6854C10.0692 14.7114 10.0432 14.7114 9.99135 14.7114C9.85332 14.7114 9.73568 14.6502 9.67462 14.5459C9.56891 14.5196 9.49953 14.443 9.472 14.3493C9.45268 14.4008 9.43342 14.4523 9.42054 14.5038C9.39774 14.5722 9.37493 14.6402 9.35223 14.7079C9.22884 15.0759 9.10849 15.4348 9.00767 15.8011H10.7633C10.8647 15.3631 10.9661 14.9438 11.0675 14.5557ZM10.3947 17.9805H8.50401C8.42285 18.4132 8.35329 18.8421 8.29531 19.2519H10.2912C10.3141 18.8192 10.3486 18.3903 10.3947 17.9805ZM10.2926 21.4314H8.04787C8.02547 21.7465 8.00867 22.0372 7.99407 22.2898C7.98462 22.4532 7.97609 22.6008 7.96757 22.7287H10.4065C10.3441 22.2918 10.315 21.8549 10.2926 21.4314ZM10.0324 13.0136C10.0226 13.0342 10.0134 13.0555 10.0043 13.0768C9.98486 13.1222 9.9654 13.1676 9.93946 13.2065L10.2189 13.933H10.9073C11.0786 13.6218 11.2508 13.3106 11.4296 12.9994C11.2875 13.0028 11.2317 13.0252 11.1435 13.0604C11.0955 13.0796 11.0378 13.1027 10.9513 13.1287C10.884 13.1527 10.8229 13.1509 10.7705 13.1313C10.5534 13.1385 10.3648 13.0923 10.1988 13.0517L10.1988 13.0517C10.1406 13.0375 10.0852 13.0239 10.0324 13.0136ZM10.3386 12.4559C10.3474 12.4575 10.3561 12.4592 10.3648 12.4608L10.3546 12.4281C10.3493 12.4374 10.344 12.4467 10.3386 12.4559ZM11.1549 12.442L11.133 12.3762C11.1594 12.3951 11.1858 12.4134 11.2123 12.4312C11.1933 12.4346 11.1742 12.4382 11.1549 12.442ZM11.6259 8.56218C11.4703 8.17299 11.107 7.91353 10.6919 7.91353C10.1211 7.91353 9.68 8.35461 9.68 8.89948C9.68 9.3665 9.99135 9.72975 10.3805 9.85948C10.5881 9.28866 11.0551 8.79569 11.6259 8.56218ZM9.78378 10.9752L9.39459 10.7416C9.29081 10.7935 9.18703 10.8714 9.08324 10.9492L9.3427 11.6497C9.43485 11.4839 9.54008 11.3311 9.64911 11.1728C9.69358 11.1083 9.73868 11.0428 9.78378 10.9752ZM8.87568 12.506L8.48649 11.4681C8.33081 11.6238 8.20108 11.7795 8.07135 11.9352L8.61622 13.0768C8.63387 13.0356 8.65153 12.993 8.66948 12.9498C8.7307 12.8023 8.79543 12.6464 8.87568 12.506ZM11.4703 10.6119C11.4703 11.1827 11.9373 11.6238 12.4822 11.6238C13.027 11.6238 13.4941 11.1827 13.4941 10.6119C13.4941 10.0411 13.027 9.60002 12.4822 9.60002C11.9114 9.60002 11.4703 10.067 11.4703 10.6119ZM14.48 9.57407C14.8692 9.44434 15.1546 9.0811 15.1546 8.64002C15.1546 8.06921 14.7135 7.62812 14.1686 7.62812C13.6757 7.62812 13.2605 7.99137 13.1827 8.48434C13.7276 8.66596 14.1946 9.05515 14.48 9.57407ZM11.9892 6.4865L11.6259 5.88975L11.2368 6.56434C11.2522 6.58757 11.2677 6.60849 11.2825 6.62847C11.3173 6.67546 11.3483 6.7173 11.3665 6.77191C11.4962 6.79785 11.6259 6.84975 11.7557 6.92758L11.9892 6.4865ZM7.26703 13.0249L7.96757 14.7373C7.96757 14.7472 7.97135 14.7533 7.97459 14.7586C7.97511 14.7594 7.97563 14.7603 7.9761 14.7611C8.02182 14.6122 8.07547 14.4636 8.12723 14.3202C8.16239 14.2228 8.19668 14.1278 8.22703 14.0368L7.55243 12.5838C7.44865 12.7135 7.34486 12.8692 7.26703 13.0249ZM12.1449 2.07569C12.1449 2.10164 12.1449 2.15353 12.1189 2.17948L10.4324 5.42272C10.4493 5.44377 10.4668 5.4655 10.4848 5.4878C10.5776 5.60296 10.6828 5.73338 10.7697 5.8638L11.8335 3.9438L11.8076 3.89191C11.6778 3.71029 11.7297 3.47677 11.9114 3.37299C12.093 3.24326 12.3265 3.29515 12.4303 3.47677L13.5978 5.26704C13.6186 5.2325 13.6393 5.19612 13.6605 5.15888C13.719 5.05625 13.7811 4.9471 13.8573 4.85191L12.1449 2.07569ZM8.71431 17.3578H10.3135C10.3649 17.0465 10.4256 16.7351 10.4957 16.4238H8.97888C8.87855 16.7351 8.79409 17.0465 8.71431 17.3578ZM10.1086 20.8086H8.20817C8.24167 20.4973 8.27734 20.1859 8.32174 19.8746H10.1086C10.0993 20.1859 10.0993 20.4973 10.1086 20.8086Z" fill="white"/>
</svg>
